<svg width="243" height="56" viewBox="0 0 243 56" fill="none" xmlns="http://www.w3.org/2000/svg">
<g clip-path="url(#clip0_1_2816)">
<path d="M76.2941 22.2564V11.8135H80.2854C81.0387 11.8135 81.6652 11.9325 82.1641 12.1705C82.6659 12.405 83.0415 12.7263 83.2888 13.1342C83.5404 13.5421 83.6658 14.0045 83.6658 14.5212C83.6658 14.946 83.5841 15.3098 83.4214 15.6123C83.2587 15.9115 83.0394 16.1545 82.7648 16.3415C82.4896 16.5285 82.1828 16.6627 81.843 16.7443V16.8463C82.2129 16.8667 82.5677 16.9806 82.9075 17.1879C83.2501 17.3919 83.5297 17.6809 83.7468 18.0548C83.964 18.4287 84.073 18.8808 84.073 19.4111C84.073 19.9517 83.9425 20.4378 83.6809 20.8695C83.4193 21.2978 83.0257 21.636 82.4996 21.8842C81.9735 22.1323 81.3118 22.2564 80.514 22.2564H76.2941ZM78.1829 20.6757H80.2137C80.8997 20.6757 81.3935 20.5448 81.6953 20.2831C82.0007 20.0179 82.1534 19.678 82.1534 19.2633C82.1534 18.9539 82.0774 18.6751 81.9247 18.427C81.772 18.1754 81.5548 17.9783 81.2731 17.8355C80.9914 17.6893 80.6552 17.6162 80.2646 17.6162H78.1829V20.6757ZM78.1829 16.2548H80.051C80.3771 16.2548 80.6703 16.1953 80.9319 16.0763C81.1928 15.954 81.3986 15.7823 81.5477 15.5613C81.7003 15.337 81.777 15.0718 81.777 14.7659C81.777 14.3613 81.6344 14.0282 81.3491 13.7665C81.0674 13.5047 80.6481 13.3738 80.0918 13.3738H78.1829V16.2548ZM85.7159 22.2564V11.8135H87.6047V20.6706H92.1966V22.2564H85.7159ZM95.7248 11.8135V22.2564H93.836V11.8135H95.7248ZM106.339 11.8135V22.2564H104.658L99.7454 15.1432H99.6594V22.2564H97.7706V11.8135H99.4608L104.368 18.9318H104.46V11.8135H106.339ZM111.93 22.2564H108.397V11.8135H112.001C113.036 11.8135 113.925 12.0226 114.669 12.4407C115.415 12.8554 115.989 13.452 116.389 14.2305C116.79 15.0089 116.99 15.9404 116.99 17.0248C116.99 18.1126 116.788 19.0474 116.384 19.8292C115.984 20.6111 115.405 21.2111 114.648 21.6292C113.895 22.0473 112.989 22.2564 111.93 22.2564ZM110.285 20.6196H111.838C112.564 20.6196 113.17 20.487 113.655 20.2219C114.141 19.9533 114.506 19.5539 114.75 19.0236C114.994 18.4899 115.117 17.8237 115.117 17.0248C115.117 16.2259 114.994 15.563 114.75 15.0361C114.506 14.5058 114.144 14.1098 113.666 13.8481C113.191 13.5829 112.6 13.4503 111.894 13.4503H110.285V20.6196ZM138.937 22.2564H135.403V11.8135H139.007C140.043 11.8135 140.932 12.0226 141.675 12.4407C142.422 12.8554 142.995 13.452 143.396 14.2305C143.797 15.0089 143.997 15.9404 143.997 17.0248C143.997 18.1126 143.795 19.0474 143.391 19.8292C142.99 20.6111 142.412 21.2111 141.655 21.6292C140.901 22.0473 139.995 22.2564 138.937 22.2564ZM137.292 20.6196H138.845C139.571 20.6196 140.177 20.487 140.662 20.2219C141.147 19.9533 141.512 19.5539 141.756 19.0236C142.001 18.4899 142.123 17.8237 142.123 17.0248C142.123 16.2259 142.001 15.563 141.756 15.0361C141.512 14.5058 141.151 14.1098 140.672 13.8481C140.197 13.5829 139.607 13.4503 138.901 13.4503H137.292V20.6196ZM145.791 22.2564V11.8135H152.572V13.3994H147.68V16.2344H152.221V17.8202H147.68V20.6706H152.613V22.2564H145.791ZM155.838 22.2564H153.823L157.493 11.8135H159.824L163.5 22.2564H161.485L158.7 13.9551H158.618L155.838 22.2564ZM155.904 18.1619H161.403V19.6814H155.904V18.1619ZM164.874 22.2564V11.8135H171.553V13.3994H166.763V16.2344H171.095V17.8202H166.763V22.2564H164.874Z" fill="#009FD7"/>
<path d="M125.375 22.4094C124.663 22.4094 124.05 22.2802 123.537 22.0219C123.025 21.7635 122.629 21.415 122.351 20.9765C122.076 20.5346 121.939 20.0366 121.939 19.4825C121.939 19.0644 122.023 18.6939 122.193 18.3709C122.366 18.048 122.604 17.7488 122.906 17.4735C123.211 17.1981 123.564 16.9245 123.965 16.6525L125.813 15.393C126.084 15.2163 126.29 15.0293 126.429 14.8322C126.571 14.635 126.642 14.4038 126.642 14.1387C126.642 13.9143 126.548 13.7019 126.358 13.5013C126.171 13.3007 125.913 13.2005 125.584 13.2005C125.363 13.2005 125.168 13.2532 124.998 13.3585C124.832 13.4605 124.701 13.5948 124.606 13.7614C124.515 13.9279 124.469 14.1047 124.469 14.2916C124.469 14.5194 124.531 14.7506 124.657 14.9852C124.786 15.2197 124.952 15.4627 125.156 15.7143C125.363 15.9659 125.584 16.2327 125.818 16.5148L130.71 22.2564H128.715L124.652 17.5958C124.35 17.2423 124.058 16.8939 123.777 16.5506C123.498 16.2072 123.269 15.8503 123.089 15.4798C122.913 15.1058 122.825 14.7013 122.825 14.2661C122.825 13.7733 122.938 13.333 123.166 12.9455C123.393 12.5546 123.71 12.2469 124.118 12.0226C124.529 11.7982 125.009 11.6861 125.559 11.6861C126.108 11.6861 126.58 11.7948 126.974 12.0124C127.367 12.23 127.671 12.5189 127.885 12.8792C128.099 13.2395 128.206 13.6322 128.206 14.0571C128.206 14.55 128.083 14.9919 127.839 15.3828C127.594 15.7704 127.255 16.1223 126.821 16.4384L124.713 17.9834C124.367 18.235 124.119 18.4899 123.97 18.7482C123.82 19.0032 123.746 19.2208 123.746 19.4009C123.746 19.6762 123.815 19.9262 123.954 20.1505C124.093 20.3749 124.289 20.555 124.54 20.691C124.794 20.8236 125.092 20.8899 125.431 20.8899C125.804 20.8899 126.173 20.8066 126.536 20.64C126.899 20.47 127.229 20.2287 127.528 19.916C127.827 19.6032 128.065 19.2293 128.241 18.7942C128.418 18.3557 128.506 17.8695 128.506 17.3358H130.09C130.09 17.9953 130.016 18.5698 129.87 19.0593C129.725 19.5454 129.536 19.9567 129.305 20.2933C129.075 20.6264 128.83 20.8932 128.572 21.0938C128.49 21.1516 128.413 21.2094 128.338 21.2672C128.263 21.325 128.185 21.3827 128.104 21.4405C127.737 21.7737 127.308 22.0185 126.816 22.1748C126.327 22.3312 125.847 22.4094 125.375 22.4094Z" fill="#012A4A"/>
<path d="M82.3928 38.0329L80.7126 38.2165C80.6653 38.0465 80.5821 37.8867 80.4631 37.7372C80.3477 37.5876 80.1922 37.4669 79.995 37.3751C79.7979 37.2834 79.5571 37.2375 79.2718 37.2375C78.8883 37.2375 78.5664 37.3208 78.3048 37.4873C78.0467 37.6539 77.9199 37.8698 77.9227 38.1349C77.9199 38.3627 78.003 38.548 78.1722 38.6907C78.3456 38.8335 78.6309 38.9507 79.028 39.0426L80.3613 39.3281C81.1018 39.4878 81.6516 39.7411 82.0114 40.0878C82.3741 40.4346 82.5576 40.8884 82.5612 41.4493C82.5576 41.9422 82.4136 42.3774 82.1283 42.7546C81.8466 43.1286 81.4545 43.421 80.952 43.6317C80.4495 43.8425 79.8732 43.9479 79.2209 43.9479C78.2639 43.9479 77.4933 43.7473 76.9099 43.3462C76.3264 42.9417 75.978 42.379 75.8662 41.6583L77.6632 41.485C77.745 41.8385 77.9177 42.1054 78.1829 42.2855C78.4474 42.4657 78.7922 42.5558 79.2159 42.5558C79.6538 42.5558 80.0051 42.4657 80.2703 42.2855C80.5384 42.1054 80.6724 41.8827 80.6724 41.6175C80.6724 41.3932 80.5857 41.208 80.4122 41.0618C80.243 40.9156 79.9778 40.8034 79.618 40.7252L78.2847 40.4448C77.5342 40.2884 76.9794 40.025 76.6196 39.6545C76.2597 39.2805 76.0819 38.808 76.0848 38.2369C76.0819 37.7542 76.2124 37.3361 76.4769 36.9825C76.745 36.6256 77.117 36.3502 77.5923 36.1565C78.0704 35.9593 78.6223 35.8607 79.2467 35.8607C80.1628 35.8607 80.8846 36.0562 81.41 36.4471C81.9397 36.838 82.2673 37.3666 82.3928 38.0329ZM87.4915 43.9479C86.7281 43.9479 86.0657 43.7796 85.5059 43.443C84.9461 43.1065 84.5117 42.6357 84.2027 42.0306C83.8974 41.4255 83.7447 40.7185 83.7447 39.9094C83.7447 39.1003 83.8974 38.3916 84.2027 37.7831C84.5117 37.1746 84.9461 36.702 85.5059 36.3655C86.0657 36.029 86.7281 35.8607 87.4915 35.8607C88.2549 35.8607 88.9172 36.029 89.477 36.3655C90.0369 36.702 90.4698 37.1746 90.7752 37.7831C91.0841 38.3916 91.2383 39.1003 91.2383 39.9094C91.2383 40.7185 91.0841 41.4255 90.7752 42.0306C90.4698 42.6357 90.0369 43.1065 89.477 43.443C88.9172 43.7796 88.2549 43.9479 87.4915 43.9479ZM87.5015 42.4691C87.9158 42.4691 88.262 42.3552 88.5402 42.1275C88.8183 41.8963 89.0255 41.587 89.1617 41.1994C89.3007 40.8119 89.3702 40.3802 89.3702 39.9043C89.3702 39.425 89.3007 38.9916 89.1617 38.604C89.0255 38.2131 88.8183 37.902 88.5402 37.6709C88.262 37.4397 87.9158 37.3241 87.5015 37.3241C87.0772 37.3241 86.7245 37.4397 86.4428 37.6709C86.1647 37.902 85.9561 38.2131 85.8163 38.604C85.6808 38.9916 85.6127 39.425 85.6127 39.9043C85.6127 40.3802 85.6808 40.8119 85.8163 41.1994C85.9561 41.587 86.1647 41.8963 86.4428 42.1275C86.7245 42.3552 87.0772 42.4691 87.5015 42.4691ZM96.2137 43.9479C95.4331 43.9479 94.7628 43.7762 94.203 43.4328C93.646 43.0895 93.2167 42.6153 92.9149 42.0102C92.616 41.4017 92.4669 40.7014 92.4669 39.9094C92.4669 39.1139 92.6196 38.412 92.9249 37.8034C93.2303 37.1916 93.6611 36.7157 94.2181 36.3757C94.7779 36.0324 95.4402 35.8607 96.2036 35.8607C96.838 35.8607 97.4 35.978 97.8889 36.2125C98.3806 36.4437 98.7727 36.7718 99.0644 37.1967C99.3569 37.6182 99.5232 38.1111 99.5633 38.6754H97.8021C97.7312 38.298 97.5613 37.9836 97.2932 37.7321C97.028 37.4771 96.6739 37.3496 96.2287 37.3496C95.8524 37.3496 95.5212 37.4516 95.2359 37.6556C94.9514 37.8561 94.7291 38.1451 94.5693 38.5224C94.413 38.8998 94.3349 39.3519 94.3349 39.8788C94.3349 40.4125 94.413 40.8714 94.5693 41.2556C94.7256 41.6363 94.9442 41.9303 95.2259 42.1377C95.5112 42.3417 95.8452 42.4436 96.2287 42.4436C96.5004 42.4436 96.7434 42.3926 96.957 42.2906C97.1742 42.1852 97.3556 42.034 97.5018 41.8368C97.648 41.6397 97.7477 41.4 97.8021 41.1179H99.5633C99.5196 41.672 99.3569 42.1632 99.0752 42.5915C98.7935 43.0164 98.41 43.3495 97.924 43.5909C97.4387 43.8288 96.8688 43.9479 96.2137 43.9479ZM101.077 43.7949V35.9627H102.92V43.7949H101.077ZM102.003 34.8511C101.712 34.8511 101.461 34.7542 101.25 34.5605C101.039 34.3633 100.935 34.127 100.935 33.8517C100.935 33.5729 101.039 33.3367 101.25 33.143C101.461 32.9457 101.712 32.8472 102.003 32.8472C102.299 32.8472 102.55 32.9457 102.757 33.143C102.967 33.3367 103.073 33.5729 103.073 33.8517C103.073 34.127 102.967 34.3633 102.757 34.5605C102.55 34.7542 102.299 34.8511 102.003 34.8511ZM108.277 43.9479C107.493 43.9479 106.816 43.7847 106.245 43.4583C105.678 43.1286 105.243 42.6629 104.937 42.0612C104.632 41.4561 104.479 40.7439 104.479 39.9247C104.479 39.119 104.632 38.412 104.937 37.8034C105.246 37.1916 105.677 36.7157 106.23 36.3757C106.784 36.0324 107.433 35.8607 108.18 35.8607C108.662 35.8607 109.117 35.9389 109.544 36.0953C109.976 36.2482 110.356 36.4862 110.685 36.8092C111.017 37.1321 111.279 37.5434 111.469 38.0431C111.659 38.5394 111.754 39.1309 111.754 39.8176V40.3836H105.344V39.1394H109.987C109.984 38.7859 109.908 38.4714 109.759 38.1961C109.609 37.9173 109.4 37.698 109.132 37.5383C108.868 37.3786 108.559 37.2987 108.205 37.2987C107.829 37.2987 107.498 37.3904 107.213 37.574C106.928 37.7542 106.706 37.9921 106.546 38.2878C106.39 38.5802 106.31 38.9015 106.306 39.2516V40.3377C106.306 40.7932 106.39 41.1841 106.556 41.5105C106.722 41.8334 106.955 42.0816 107.253 42.2549C107.552 42.425 107.902 42.5099 108.302 42.5099C108.57 42.5099 108.813 42.4725 109.03 42.3977C109.248 42.3196 109.436 42.2057 109.595 42.0561C109.755 41.9065 109.875 41.7212 109.957 41.5003L111.677 41.6941C111.569 42.1495 111.362 42.5473 111.057 42.8872C110.754 43.2237 110.368 43.4855 109.896 43.6725C109.424 43.856 108.884 43.9479 108.277 43.9479ZM117.218 35.9627V37.3904H112.723V35.9627H117.218ZM113.832 34.0863H115.675V41.4391C115.675 41.6873 115.712 41.8776 115.788 42.0102C115.865 42.1393 115.967 42.2277 116.093 42.2753C116.219 42.3229 116.358 42.3468 116.51 42.3468C116.626 42.3468 116.731 42.3382 116.826 42.3212C116.925 42.3043 116.999 42.289 117.05 42.2753L117.36 43.7184C117.262 43.7524 117.121 43.7898 116.938 43.8306C116.758 43.8713 116.538 43.8952 116.276 43.9019C115.814 43.9156 115.398 43.8458 115.029 43.6929C114.659 43.5366 114.366 43.2952 114.148 42.9688C113.934 42.6425 113.829 42.2346 113.832 41.7451V34.0863ZM119.905 46.7319C119.653 46.7319 119.421 46.7115 119.207 46.6708C118.997 46.6334 118.829 46.5891 118.703 46.5382L119.131 45.1002C119.399 45.1784 119.638 45.2158 119.848 45.2124C120.059 45.209 120.244 45.1427 120.404 45.0135C120.567 44.8878 120.704 44.677 120.816 44.3813L120.974 43.9581L118.138 35.9627H120.093L121.895 41.8776H121.977L123.784 35.9627H125.744L122.613 44.7433C122.467 45.158 122.273 45.5133 122.033 45.809C121.792 46.1082 121.496 46.3359 121.147 46.4923C120.801 46.652 120.387 46.7319 119.905 46.7319ZM133.986 43.9479C133.223 43.9479 132.561 43.7796 132.001 43.443C131.441 43.1065 131.006 42.6357 130.697 42.0306C130.392 41.4255 130.239 40.7185 130.239 39.9094C130.239 39.1003 130.392 38.3916 130.697 37.7831C131.006 37.1746 131.441 36.702 132.001 36.3655C132.561 36.029 133.223 35.8607 133.986 35.8607C134.75 35.8607 135.412 36.029 135.972 36.3655C136.532 36.702 136.965 37.1746 137.27 37.7831C137.579 38.3916 137.734 39.1003 137.734 39.9094C137.734 40.7185 137.579 41.4255 137.27 42.0306C136.965 42.6357 136.532 43.1065 135.972 43.443C135.412 43.7796 134.75 43.9479 133.986 43.9479ZM133.997 42.4691C134.411 42.4691 134.757 42.3552 135.035 42.1275C135.314 41.8963 135.521 41.587 135.656 41.1994C135.795 40.8119 135.865 40.3802 135.865 39.9043C135.865 39.425 135.795 38.9916 135.656 38.604C135.521 38.2131 135.314 37.902 135.035 37.6709C134.757 37.4397 134.411 37.3241 133.997 37.3241C133.573 37.3241 133.219 37.4397 132.937 37.6709C132.659 37.902 132.451 38.2131 132.312 38.604C132.176 38.9916 132.108 39.425 132.108 39.9043C132.108 40.3802 132.176 40.8119 132.312 41.1994C132.451 41.587 132.659 41.8963 132.937 42.1275C133.219 42.3552 133.573 42.4691 133.997 42.4691ZM143.258 35.9627V37.3904H138.636V35.9627H143.258ZM139.792 43.7949V35.2234C139.792 34.6964 139.9 34.2579 140.117 33.9078C140.338 33.5576 140.633 33.2959 141.003 33.1225C141.373 32.9492 141.784 32.8624 142.235 32.8624C142.554 32.8624 142.837 32.8879 143.085 32.939C143.333 32.99 143.516 33.0358 143.635 33.0766L143.269 34.5044C143.191 34.4806 143.092 34.4568 142.974 34.433C142.855 34.4058 142.722 34.3922 142.576 34.3922C142.233 34.3922 141.991 34.4755 141.848 34.642C141.709 34.8052 141.64 35.0398 141.64 35.3457V43.7949H139.792ZM147.881 34.9378V33.3519H156.2V34.9378H152.977V43.7949H151.104V34.9378H147.881ZM161.642 40.5008V35.9627H163.485V43.7949H161.698V42.4028H161.617C161.44 42.8414 161.15 43.2 160.746 43.4788C160.346 43.7575 159.852 43.8968 159.265 43.8968C158.752 43.8968 158.299 43.783 157.906 43.5552C157.515 43.324 157.21 42.9892 156.989 42.5507C156.768 42.1088 156.658 41.575 156.658 40.9496V35.9627H158.501V40.664C158.501 41.1604 158.637 41.5547 158.908 41.847C159.18 42.1394 159.536 42.2855 159.977 42.2855C160.249 42.2855 160.512 42.2193 160.766 42.0867C161.021 41.9541 161.229 41.757 161.393 41.4952C161.559 41.2301 161.642 40.8986 161.642 40.5008ZM165.381 43.7949V35.9627H167.167V37.2681H167.249C167.391 36.816 167.636 36.4675 167.982 36.2227C168.332 35.9746 168.73 35.8506 169.178 35.8506C169.28 35.8506 169.394 35.8556 169.519 35.8658C169.648 35.8726 169.755 35.8845 169.84 35.9015V37.5995C169.762 37.5723 169.638 37.5485 169.468 37.5281C169.302 37.5043 169.141 37.4924 168.985 37.4924C168.648 37.4924 168.347 37.5655 168.079 37.7117C167.813 37.8545 167.605 38.0533 167.452 38.3083C167.299 38.5633 167.223 38.8572 167.223 39.1904V43.7949H165.381ZM172.744 41.3371L172.739 39.1088H173.035L175.845 35.9627H177.999L174.541 39.8176H174.159L172.744 41.3371ZM171.064 43.7949V33.3519H172.907V43.7949H171.064ZM175.972 43.7949L173.427 40.2306L174.669 38.9303L178.176 43.7949H175.972ZM179.226 43.7949V35.9627H180.988V37.2936H181.079C181.242 36.8448 181.512 36.4947 181.889 36.2431C182.266 35.9882 182.715 35.8607 183.238 35.8607C183.768 35.8607 184.214 35.9899 184.577 36.2482C184.944 36.5032 185.202 36.8517 185.351 37.2936H185.433C185.605 36.8584 185.897 36.5117 186.308 36.2533C186.722 35.9916 187.213 35.8607 187.78 35.8607C188.499 35.8607 189.086 36.0885 189.541 36.544C189.996 36.9995 190.223 37.6641 190.223 38.5378V43.7949H188.375V38.8233C188.375 38.3372 188.246 37.9819 187.988 37.7576C187.73 37.5298 187.415 37.416 187.041 37.416C186.597 37.416 186.248 37.5553 185.998 37.834C185.749 38.1094 185.626 38.468 185.626 38.9099V43.7949H183.818V38.7468C183.818 38.3423 183.697 38.0193 183.452 37.778C183.211 37.5366 182.895 37.416 182.505 37.416C182.241 37.416 181.999 37.484 181.782 37.6199C181.565 37.7525 181.392 37.9411 181.263 38.1859C181.134 38.4273 181.069 38.7094 181.069 39.0324V43.7949H179.226ZM195.555 43.9479C194.771 43.9479 194.093 43.7847 193.523 43.4583C192.956 43.1286 192.521 42.6629 192.215 42.0612C191.909 41.4561 191.756 40.7439 191.756 39.9247C191.756 39.119 191.909 38.412 192.215 37.8034C192.524 37.1916 192.955 36.7157 193.508 36.3757C194.061 36.0324 194.711 35.8607 195.458 35.8607C195.94 35.8607 196.395 35.9389 196.822 36.0953C197.254 36.2482 197.634 36.4862 197.963 36.8092C198.295 37.1321 198.557 37.5434 198.747 38.0431C198.937 38.5394 199.032 39.1309 199.032 39.8176V40.3836H192.622V39.1394H197.265C197.262 38.7859 197.186 38.4714 197.036 38.1961C196.887 37.9173 196.678 37.698 196.41 37.5383C196.145 37.3786 195.837 37.2987 195.483 37.2987C195.107 37.2987 194.776 37.3904 194.49 37.574C194.206 37.7542 193.983 37.9921 193.824 38.2878C193.667 38.5802 193.588 38.9015 193.584 39.2516V40.3377C193.584 40.7932 193.667 41.1841 193.834 41.5105C194 41.8334 194.233 42.0816 194.531 42.2549C194.83 42.425 195.18 42.5099 195.58 42.5099C195.848 42.5099 196.091 42.4725 196.308 42.3977C196.525 42.3196 196.714 42.2057 196.873 42.0561C197.033 41.9065 197.153 41.7212 197.234 41.5003L198.955 41.6941C198.847 42.1495 198.64 42.5473 198.335 42.8872C198.032 43.2237 197.645 43.4855 197.173 43.6725C196.702 43.856 196.162 43.9479 195.555 43.9479ZM202.434 39.2057V43.7949H200.591V35.9627H202.352V37.2936H202.444C202.624 36.855 202.911 36.5066 203.304 36.2482C203.701 35.9899 204.192 35.8607 204.776 35.8607C205.316 35.8607 205.785 35.9763 206.186 36.2074C206.589 36.4386 206.902 36.7735 207.123 37.212C207.346 37.6505 207.457 38.1825 207.454 38.808V43.7949H205.61V39.0935C205.61 38.57 205.475 38.1604 205.203 37.8647C204.935 37.5689 204.564 37.4211 204.088 37.4211C203.766 37.4211 203.479 37.4924 203.228 37.6352C202.98 37.7746 202.785 37.9768 202.643 38.242C202.504 38.5071 202.434 38.8284 202.434 39.2057ZM209.327 43.7949V35.9627H211.17V43.7949H209.327ZM210.254 34.8511C209.962 34.8511 209.71 34.7542 209.5 34.5605C209.29 34.3633 209.184 34.127 209.184 33.8517C209.184 33.5729 209.29 33.3367 209.5 33.143C209.71 32.9457 209.962 32.8472 210.254 32.8472C210.549 32.8472 210.8 32.9457 211.007 33.143C211.217 33.3367 211.323 33.5729 211.323 33.8517C211.323 34.127 211.217 34.3633 211.007 34.5605C210.8 34.7542 210.549 34.8511 210.254 34.8511ZM219.245 38.0329L217.565 38.2165C217.518 38.0465 217.435 37.8867 217.316 37.7372C217.2 37.5876 217.045 37.4669 216.848 37.3751C216.651 37.2834 216.41 37.2375 216.124 37.2375C215.741 37.2375 215.419 37.3208 215.158 37.4873C214.899 37.6539 214.773 37.8698 214.775 38.1349C214.773 38.3627 214.856 38.548 215.025 38.6907C215.198 38.8335 215.484 38.9507 215.881 39.0426L217.214 39.3281C217.955 39.4878 218.504 39.7411 218.863 40.0878C219.227 40.4346 219.41 40.8884 219.414 41.4493C219.41 41.9422 219.266 42.3774 218.981 42.7546C218.699 43.1286 218.307 43.421 217.805 43.6317C217.302 43.8425 216.726 43.9479 216.074 43.9479C215.117 43.9479 214.346 43.7473 213.763 43.3462C213.179 42.9417 212.831 42.379 212.719 41.6583L214.516 41.485C214.598 41.8385 214.77 42.1054 215.036 42.2855C215.3 42.4657 215.644 42.5558 216.069 42.5558C216.507 42.5558 216.858 42.4657 217.123 42.2855C217.391 42.1054 217.525 41.8827 217.525 41.6175C217.525 41.3932 217.438 41.208 217.265 41.0618C217.096 40.9156 216.831 40.8034 216.471 40.7252L215.137 40.4448C214.387 40.2884 213.832 40.025 213.472 39.6545C213.112 39.2805 212.935 38.808 212.938 38.2369C212.935 37.7542 213.065 37.3361 213.33 36.9825C213.598 36.6256 213.97 36.3502 214.445 36.1565C214.923 35.9593 215.475 35.8607 216.099 35.8607C217.015 35.8607 217.737 36.0562 218.263 36.4471C218.792 36.838 219.12 37.3666 219.245 38.0329ZM224.838 35.9627V37.3904H220.343V35.9627H224.838ZM221.453 34.0863H223.295V41.4391C223.295 41.6873 223.333 41.8776 223.407 42.0102C223.485 42.1393 223.587 42.2277 223.713 42.2753C223.839 42.3229 223.978 42.3468 224.131 42.3468C224.246 42.3468 224.351 42.3382 224.446 42.3212C224.544 42.3043 224.619 42.289 224.67 42.2753L224.981 43.7184C224.883 43.7524 224.741 43.7898 224.558 43.8306C224.378 43.8713 224.158 43.8952 223.896 43.9019C223.435 43.9156 223.019 43.8458 222.649 43.6929C222.279 43.5366 221.985 43.2952 221.768 42.9688C221.554 42.6425 221.449 42.2346 221.453 41.7451V34.0863ZM228.629 43.953C228.134 43.953 227.687 43.8646 227.291 43.6878C226.897 43.5076 226.585 43.2425 226.354 42.8923C226.126 42.5422 226.013 42.1105 226.013 41.5972C226.013 41.1553 226.094 40.7898 226.257 40.5008C226.42 40.2119 226.642 39.9808 226.924 39.8074C227.206 39.634 227.523 39.5032 227.876 39.4147C228.232 39.323 228.601 39.2567 228.981 39.2159C229.439 39.1683 229.811 39.1258 230.096 39.0884C230.381 39.0476 230.588 38.9865 230.717 38.9048C230.849 38.8198 230.915 38.689 230.915 38.5122V38.4816C230.915 38.0975 230.802 37.8001 230.574 37.5893C230.347 37.3786 230.019 37.2732 229.592 37.2732C229.14 37.2732 228.782 37.3717 228.517 37.5689C228.257 37.766 228.08 37.9989 227.988 38.2675L226.267 38.0227C226.403 37.5468 226.627 37.1491 226.939 36.8295C227.252 36.5066 227.634 36.2652 228.085 36.1055C228.536 35.9423 229.035 35.8607 229.582 35.8607C229.958 35.8607 230.333 35.9049 230.707 35.9933C231.08 36.0817 231.421 36.2278 231.73 36.4318C232.039 36.6324 232.286 36.906 232.474 37.2528C232.664 37.5995 232.758 38.0329 232.758 38.5531V43.7949H230.987V42.719H230.926C230.813 42.9366 230.656 43.1405 230.452 43.3309C230.252 43.5178 229.999 43.6691 229.694 43.7847C229.391 43.8968 229.037 43.953 228.629 43.953ZM229.108 42.5966C229.478 42.5966 229.799 42.5235 230.07 42.3774C230.342 42.2277 230.55 42.0306 230.697 41.7858C230.846 41.5411 230.92 41.2742 230.92 40.9852V40.0623C230.863 40.1099 230.765 40.1542 230.626 40.1949C230.489 40.2357 230.337 40.2714 230.167 40.302C229.998 40.3326 229.829 40.3598 229.663 40.3836C229.497 40.4074 229.353 40.4278 229.23 40.4448C228.955 40.4822 228.71 40.5434 228.492 40.6284C228.275 40.7134 228.104 40.8323 227.978 40.9852C227.852 41.1349 227.79 41.3286 227.79 41.5666C227.79 41.9065 227.913 42.1632 228.161 42.3366C228.409 42.5099 228.725 42.5966 229.108 42.5966ZM236.455 39.2057V43.7949H234.612V35.9627H236.373V37.2936H236.465C236.645 36.855 236.931 36.5066 237.325 36.2482C237.722 35.9899 238.212 35.8607 238.797 35.8607C239.336 35.8607 239.806 35.9763 240.207 36.2074C240.61 36.4386 240.923 36.7735 241.143 37.212C241.367 37.6505 241.477 38.1825 241.474 38.808V43.7949H239.631V39.0935C239.631 38.57 239.495 38.1604 239.224 37.8647C238.956 37.5689 238.584 37.4211 238.109 37.4211C237.787 37.4211 237.5 37.4924 237.249 37.6352C237.001 37.7746 236.806 37.9768 236.663 38.242C236.524 38.5071 236.455 38.8284 236.455 39.2057Z" fill="#012A4A"/>
<path d="M35.1026 54.1185C37.2479 54.1185 38.987 53.0787 38.987 51.796C38.987 50.5133 37.2479 49.4734 35.1026 49.4734C32.9573 49.4734 31.2182 50.5133 31.2182 51.796C31.2182 53.0787 32.9573 54.1185 35.1026 54.1185Z" fill="#19A3DD"/>
<path d="M43.691 32.9704H24.0187V51.7965H43.691V32.9704Z" fill="#19A3DD"/>
<path d="M33.8878 41.238C34.0191 40.5487 34.3714 39.9213 34.8914 39.4512C35.4068 38.9807 35.9985 38.6017 36.641 38.3305C37.8679 37.7701 39.1906 37.4457 40.469 37.0131C41.108 36.8043 41.7305 36.548 42.3315 36.2464C42.6304 36.1138 42.9088 35.9391 43.1584 35.7278C43.3449 35.5484 43.524 35.3591 43.7228 35.1944C44.2552 34.757 44.4417 35.3567 44.4319 35.8211C44.4147 36.5584 43.9092 37.1164 43.3007 37.5096L42.2358 38.2002L43.2811 37.6767C43.708 37.4629 44.4466 38.0208 44.508 38.4411C44.5544 38.8005 44.4671 39.1645 44.2626 39.4635C44.118 39.6131 43.9613 39.7504 43.794 39.8739L43.0013 40.0214C43.3277 39.9919 43.7792 39.8149 44.0761 40.0214C44.5546 40.3532 44.9472 41.2969 44.5473 41.9556C44.4243 42.1327 44.2671 42.2833 44.0851 42.3985C43.903 42.5138 43.6997 42.5913 43.4872 42.6266C43.3007 42.6585 43.0897 42.6585 43.0897 42.6708C43.0897 42.6831 43.8259 42.516 44.2307 42.8625C44.5939 43.1795 44.5914 43.8456 44.4074 44.3125C44.3128 44.5314 44.1715 44.7269 43.9935 44.8852C43.8154 45.0436 43.6049 45.1611 43.3768 45.2293C43.0517 45.3134 42.7086 45.2937 42.3952 45.1728L42.0345 45.0203C42.2799 45.1334 42.6382 45.2342 42.8197 45.4259C42.9648 45.6369 43.0253 45.8949 42.9891 46.1484C42.9253 46.6891 42.4762 47.2274 41.8849 47.2004C41.6931 47.1988 41.5033 47.1613 41.3254 47.0898C41.6247 47.1512 41.7744 47.2053 41.7744 47.2569C41.7744 47.3085 41.6787 47.3355 41.4947 47.37C40.6604 47.4387 39.5463 47.5125 38.3587 47.5297C37.7942 47.5521 37.2288 47.5415 36.6655 47.4978C36.3147 47.4978 35.9024 47.5641 35.581 47.4044C35.5319 47.3797 35.5466 47.1832 35.5172 47.1315C35.3945 46.9005 35.1098 46.8587 34.8767 46.8416C34.4719 46.8071 34.3565 47.0873 34.0154 47.2151C33.9811 45.847 33.9475 44.478 33.9148 43.1083L33.878 41.555C33.8728 41.4492 33.8761 41.3432 33.8878 41.238Z" fill="white" stroke="#19A3DD" stroke-width="0.171162" stroke-miterlimit="10"/>
<path d="M42.2359 38.2005C41.6887 38.5421 40.7636 39.0287 40.6262 39.712C40.5305 40.1543 41.117 40.0929 41.3795 40.0855L42.9745 40.029C42.5255 40.0437 42.074 40.1371 41.6249 40.1691C41.2116 40.1642 40.7993 40.2121 40.398 40.3116C40.2577 40.3544 40.1274 40.4249 40.0149 40.519C39.9023 40.6132 39.8098 40.729 39.7428 40.8597C39.5416 41.2996 39.7796 41.8428 40.1698 42.1279C41.0139 42.7398 42.0543 42.3933 42.9819 42.6587C42.1402 42.6587 41.3206 42.6268 40.4814 42.5727C40.3872 42.5581 40.2911 42.5624 40.1986 42.5853C40.1061 42.6083 40.019 42.6495 39.9425 42.7064C39.8661 42.7633 39.8016 42.835 39.753 42.917C39.7044 42.9992 39.6726 43.0901 39.6594 43.1847C39.5711 44.2735 41.2887 44.6765 42.0224 45.0206C41.2863 44.7748 40.4176 44.3078 39.6373 44.5487C38.7736 44.8191 39.0312 45.7628 39.5613 46.2519C40.052 46.6968 40.7047 46.8811 41.3133 47.09" stroke="#19A3DD" stroke-width="0.171162" stroke-miterlimit="10"/>
<path d="M34.1246 47.2898L31.4488 50.7164C31.1007 51.1623 31.1789 51.806 31.6235 52.1543C32.0681 52.5026 32.7107 52.4235 33.0589 51.9777L35.7347 48.5511C36.0828 48.1053 36.0046 47.4615 35.5601 47.1132C35.1154 46.765 34.4728 46.844 34.1246 47.2898Z" fill="white" stroke="#19A3DD" stroke-width="0.171162" stroke-miterlimit="10"/>
<path d="M25.6848 45.1135V45.0422C25.6779 44.3363 25.7479 43.6317 25.8934 42.9409C26.048 42.243 26.3228 41.5867 26.3841 40.8666C26.524 39.392 26.4578 37.8879 26.7375 36.4256C26.7671 36.2235 26.8292 36.0276 26.9215 35.8455C27.1105 35.5088 27.5203 35.3244 27.8221 35.639C27.9184 35.7513 27.9963 35.8783 28.0527 36.0151C28.347 36.5561 28.5148 37.1569 28.5436 37.7724C28.5403 38.3108 28.4576 38.8458 28.2981 39.36C28.0994 40.0556 27.8712 40.4365 27.9693 40.5053C28.0675 40.5742 28.4355 40.2841 28.7055 39.9499C28.8895 39.7041 28.9508 39.4436 29.4416 38.1853C29.5643 37.8535 29.6453 37.4897 29.9103 37.2366C29.9995 37.1417 30.1096 37.069 30.2318 37.0243C30.3539 36.9797 30.4849 36.9642 30.6141 36.9793C30.7434 36.9943 30.8673 37.0394 30.976 37.111C31.0847 37.1826 31.1752 37.2786 31.2403 37.3914C31.3887 37.6521 31.4728 37.9444 31.4856 38.2443C31.4856 38.3671 31.5544 39.129 31.4587 39.1905C31.7973 38.9791 32.3641 38.7358 32.7666 38.9127C33.3334 39.1585 33.1494 40.1244 33.1273 40.611C33.1273 40.8715 33.564 40.493 34.2217 40.5717C34.4292 40.5718 34.6325 40.6305 34.8082 40.7413C35.1443 40.987 35.2572 41.5081 35.2572 41.9062V42.2896C35.2572 41.8497 36.1259 41.9087 36.3148 42.1274C36.5921 42.4494 36.3393 43.1326 36.2314 43.4792C35.9442 44.2829 35.5698 45.0527 35.1149 45.7747C34.759 46.3915 34.4204 47.0035 34.0941 47.6449C33.7947 48.2225 33.5052 48.7313 33.4144 49.3899C33.357 49.9147 33.3341 50.4426 33.3456 50.9703C33.3456 52.3736 33.3285 53.7229 33.5911 55.109L33.6328 55.2565C33.3765 55.2483 33.12 55.2565 32.8647 55.2811C32.3468 55.2885 31.8294 55.2416 31.3213 55.141C30.2146 54.9346 28.9533 54.5044 28.0601 53.7917C27.5693 53.4108 26.7448 52.9021 26.6811 52.7103C26.6345 52.5678 26.7375 52.3908 26.7793 52.2606C26.9055 51.8223 26.9747 51.3697 26.9853 50.9138C27.0025 50.5377 27.0958 50.0093 26.9534 49.6505C26.9022 49.5459 26.8388 49.4476 26.7645 49.358C26.4469 48.8845 26.182 48.3777 25.9743 47.8465C25.6284 47.0355 25.6824 45.9909 25.6848 45.1135Z" fill="white" stroke="#19A3DD" stroke-width="0.171162" stroke-miterlimit="10"/>
<path d="M11.6545 5.75953L10.627 6.3611L13.9361 12.0305L14.9635 11.4289L11.6545 5.75953Z" fill="#19A3DD"/>
<path d="M13.4208 4.88449L12.9566 4.10033L8.34558 6.83909L8.80986 7.62325L13.4208 4.88449Z" fill="#19A3DD"/>
<path d="M30.0183 6.89617L28.8798 6.98711L26.0309 4.0231L25.1622 5.17332L25.1401 5.15611L25.5573 7.61629L24.3819 7.81537L23.2016 0.860031L24.3746 0.660958L24.9365 3.96166L25.3929 3.35953L25.9327 2.64433L27.8492 0.107973H28.9902L26.5707 3.31037L30.0183 6.89617Z" fill="#19A3DD"/>
<path d="M60.4727 7.13011L59.5771 8.48185L58.2398 10.4996C57.9936 10.9405 57.6525 11.3208 57.2411 11.613C56.7967 11.8918 56.2685 12.005 55.7492 11.9325C55.1013 11.8268 54.5934 11.4016 54.1321 10.9494C53.9686 10.7918 53.8176 10.6217 53.6806 10.4406L54.2646 9.80409C54.428 10.0894 54.6455 10.3399 54.905 10.5414C55.3173 10.8535 55.8595 11.1042 56.3773 10.9224C56.68 10.7923 56.9366 10.5739 57.1135 10.2957C57.9012 9.22657 58.4581 8.01977 59.1869 6.91629L59.2458 6.85485L56.9761 5.34827L57.4791 4.58884L60.7181 6.73934C60.7181 6.73934 60.4727 7.12766 60.4727 7.13011Z" fill="#1CA3DD"/>
<path d="M45.0233 7.59188L43.8995 7.3854L41.9094 3.78733L40.7758 4.67456L40.7586 4.64999L40.5279 7.13474L39.3403 7.02414L39.9905 0L41.1757 0.110597L40.869 3.44571L41.4653 2.9812L42.1695 2.42822L44.6749 0.474339L45.7766 0.769261L42.6161 3.23681L45.0233 7.59188Z" fill="#19A3DD"/>
<path d="M34.6069 54.8905C52.9281 54.8905 67.7802 44.3811 67.7802 31.4169C67.7802 18.4529 52.9281 7.94338 34.6069 7.94338C16.2858 7.94338 1.43362 18.4529 1.43362 31.4169C1.43362 44.3811 16.2858 54.8905 34.6069 54.8905Z" stroke="#19A3DD" stroke-width="2.39627" stroke-miterlimit="10"/>
<path d="M34.6708 54.1946C44.0828 54.1946 51.7126 44.2638 51.7126 32.0137C51.7126 19.7635 44.0828 9.83288 34.6708 9.83288C25.2589 9.83288 17.629 19.7635 17.629 32.0137C17.629 44.2638 25.2589 54.1946 34.6708 54.1946Z" stroke="#19A3DD" stroke-width="2.39627" stroke-miterlimit="10"/>
<path d="M34.7935 54.8905C48.8402 54.8905 60.2274 44.3811 60.2274 31.4169C60.2274 18.4529 48.8402 7.94338 34.7935 7.94338C20.7467 7.94338 9.35953 18.4529 9.35953 31.4169C9.35953 44.3811 20.7467 54.8905 34.7935 54.8905Z" stroke="#19A3DD" stroke-width="2.39627" stroke-miterlimit="10"/>
<path d="M67.017 30.7408H2.14273V32.0926H67.017V30.7408Z" fill="#19A3DD"/>
<path d="M43.6934 30.1264H42.0322V33.1689H43.6934V30.1264Z" fill="#19A3DD"/>
<path d="M27.6626 30.0212H26.2075V33.1449H27.6626V30.0212Z" fill="#19A3DD"/>
<path d="M35.4362 29.8958H33.775V32.9385H35.4362V29.8958Z" fill="#19A3DD"/>
<path d="M43.8873 10.3813H24.8407V29.9275H43.8873V10.3813Z" fill="white" stroke="#19A3DD" stroke-width="1.02697" stroke-miterlimit="10"/>
<path d="M43.7083 29.0598L43.2764 29.3253L40.0716 23.9182L39.8557 23.5496L39.8312 23.5103C39.6816 23.2646 39.5392 22.9991 39.3846 22.746C39.2968 22.5653 39.1531 22.4178 38.9748 22.3257C38.8897 22.2929 38.7983 22.2795 38.7073 22.2863C38.6627 22.2881 38.6184 22.2938 38.5749 22.3036L38.5306 22.3183C38.388 22.367 38.2652 22.461 38.181 22.5862C38.0968 22.7114 38.0559 22.8607 38.0644 23.0114V23.0237C37.897 23.1115 37.7079 23.149 37.5197 23.1318C37.5197 23.1048 37.5197 23.0753 37.5197 23.0434C37.5103 22.8482 37.5483 22.6538 37.6304 22.4765C37.7124 22.2993 37.8361 22.1447 37.9908 22.0259C38.1473 21.9013 38.3318 21.817 38.5282 21.78C38.666 21.7531 38.8076 21.7531 38.9454 21.78C39.2711 21.8719 39.5553 22.0732 39.7502 22.3502C39.8423 22.4798 39.9243 22.6162 39.9956 22.7583L40.5035 23.6258C40.7113 23.9797 40.9207 24.3336 41.1317 24.6875L41.7501 25.7296L42.3857 26.8036L42.9696 27.7867L43.4334 28.5683L43.7058 29.0279L43.7083 29.0598Z" fill="#19A3DD"/>
<path d="M35.316 16.066C36.3134 16.066 37.122 15.2561 37.122 14.2571C37.122 13.2581 36.3134 12.4482 35.316 12.4482C34.3186 12.4482 33.51 13.2581 33.51 14.2571C33.51 15.2561 34.3186 16.066 35.316 16.066Z" fill="#19A3DD"/>
<path d="M38.5748 22.3013C38.5553 22.4371 38.5071 22.5672 38.4335 22.6829C38.3599 22.7985 38.2625 22.8973 38.1478 22.9723C38.1209 22.9901 38.093 23.0065 38.0644 23.0215C37.8486 23.1355 37.598 23.165 37.3616 23.1042C37.1252 23.0433 36.92 22.8964 36.786 22.6921L33.8168 18.192C33.7456 18.0839 33.6964 17.9628 33.6718 17.8356C33.6474 17.7084 33.6481 17.5776 33.6741 17.4507C33.7265 17.1945 33.8785 16.9696 34.0966 16.8256C34.3145 16.6815 34.5808 16.6301 34.8367 16.6826C34.9633 16.7086 35.0837 16.7594 35.1908 16.8319C35.2979 16.9046 35.3897 16.9976 35.4609 17.1057L38.4275 21.6009C38.4653 21.6578 38.4966 21.7188 38.5208 21.7827C38.587 21.9471 38.6058 22.1268 38.5748 22.3013Z" fill="#19A3DD"/>
<path d="M39.2619 29.7529C39.0371 29.9024 38.7637 29.9602 38.4978 29.9146C38.2319 29.8689 37.9934 29.7231 37.8312 29.507L34.7468 25.3118L31.9028 29.4653C31.746 29.6842 31.5117 29.8351 31.2478 29.8871C30.9839 29.9392 30.71 29.8885 30.482 29.7455C30.3705 29.6784 30.2738 29.5893 30.198 29.4834C30.122 29.3776 30.0686 29.2573 30.0408 29.1301C30.0129 29.0028 30.0114 28.8712 30.0362 28.7433C30.061 28.6154 30.1117 28.4939 30.1851 28.3863L33.802 23.1146L34.2634 22.4952L34.7223 21.8759L35.1835 22.4952L35.6424 23.1146H35.6228C35.6579 23.1485 35.6899 23.1856 35.7185 23.2251L39.5097 28.3863C39.5868 28.491 39.6418 28.6104 39.6712 28.7371C39.7005 28.8638 39.7037 28.9952 39.6805 29.1232C39.6573 29.2512 39.6081 29.3731 39.5362 29.4814C39.4641 29.5897 39.3708 29.6821 39.2619 29.7529Z" fill="#19A3DD"/>
</g>
<defs>
<clipPath id="clip0_1_2816">
<rect width="243" height="56" fill="white"/>
</clipPath>
</defs>
</svg>
