<svg width="243" height="56" viewBox="0 0 243 56" fill="none" xmlns="http://www.w3.org/2000/svg">
<g clip-path="url(#clip0_96_557)">
<path d="M76.2939 22.2564V11.8135H80.2852C81.0385 11.8135 81.665 11.9325 82.1639 12.1704C82.6657 12.405 83.0413 12.7263 83.2886 13.1341C83.5402 13.5421 83.6657 14.0044 83.6657 14.5211C83.6657 14.946 83.5839 15.3097 83.4212 15.6123C83.2585 15.9115 83.0392 16.1545 82.7646 16.3415C82.4894 16.5285 82.1826 16.6627 81.8428 16.7443V16.8463C82.2127 16.8667 82.5675 16.9806 82.9073 17.1879C83.2499 17.3919 83.5295 17.6808 83.7467 18.0547C83.9639 18.4287 84.0728 18.8808 84.0728 19.4111C84.0728 19.9516 83.9424 20.4378 83.6807 20.8695C83.4191 21.2978 83.0256 21.636 82.4994 21.8841C81.9733 22.1323 81.3116 22.2564 80.5138 22.2564H76.2939ZM78.1828 20.6757H80.2135C80.8995 20.6757 81.3934 20.5448 81.6951 20.283C82.0005 20.0179 82.1532 19.678 82.1532 19.2633C82.1532 18.9539 82.0772 18.6751 81.9245 18.427C81.7718 18.1754 81.5546 17.9783 81.2729 17.8355C80.9912 17.6893 80.655 17.6162 80.2644 17.6162H78.1828V20.6757ZM78.1828 16.2548H80.0508C80.3769 16.2548 80.6701 16.1953 80.9317 16.0763C81.1927 15.954 81.3984 15.7823 81.5475 15.5613C81.7002 15.337 81.7769 15.0718 81.7769 14.7659C81.7769 14.3613 81.6342 14.0282 81.3489 13.7664C81.0672 13.5047 80.6479 13.3738 80.0916 13.3738H78.1828V16.2548ZM85.7158 22.2564V11.8135H87.6046V20.6706H92.1965V22.2564H85.7158ZM95.7246 11.8135V22.2564H93.8358V11.8135H95.7246ZM106.338 11.8135V22.2564H104.658L99.7452 15.1432H99.6592V22.2564H97.7704V11.8135H99.4607L104.368 18.9318H104.46V11.8135H106.338ZM111.93 22.2564H108.396V11.8135H112.001C113.036 11.8135 113.925 12.0225 114.669 12.4407C115.415 12.8554 115.989 13.452 116.389 14.2305C116.79 15.0089 116.99 15.9404 116.99 17.0248C116.99 18.1125 116.788 19.0474 116.384 19.8292C115.984 20.6111 115.405 21.2111 114.648 21.6292C113.894 22.0473 112.988 22.2564 111.93 22.2564ZM110.285 20.6196H111.838C112.564 20.6196 113.17 20.487 113.655 20.2219C114.141 19.9533 114.506 19.5539 114.75 19.0236C114.994 18.4899 115.117 17.8236 115.117 17.0248C115.117 16.2259 114.994 15.563 114.75 15.0361C114.506 14.5058 114.144 14.1098 113.666 13.8481C113.191 13.5829 112.6 13.4503 111.894 13.4503H110.285V20.6196ZM138.936 22.2564H135.403V11.8135H139.007C140.042 11.8135 140.932 12.0225 141.675 12.4407C142.421 12.8554 142.995 13.452 143.396 14.2305C143.796 15.0089 143.996 15.9404 143.996 17.0248C143.996 18.1125 143.795 19.0474 143.391 19.8292C142.99 20.6111 142.411 21.2111 141.654 21.6292C140.901 22.0473 139.995 22.2564 138.936 22.2564ZM137.292 20.6196H138.845C139.571 20.6196 140.176 20.487 140.662 20.2219C141.147 19.9533 141.512 19.5539 141.756 19.0236C142.001 18.4899 142.123 17.8236 142.123 17.0248C142.123 16.2259 142.001 15.563 141.756 15.0361C141.512 14.5058 141.151 14.1098 140.672 13.8481C140.197 13.5829 139.607 13.4503 138.9 13.4503H137.292V20.6196ZM145.791 22.2564V11.8135H152.572V13.3994H147.68V16.2344H152.221V17.8202H147.68V20.6706H152.613V22.2564H145.791ZM155.838 22.2564H153.822L157.493 11.8135H159.824L163.5 22.2564H161.484L158.7 13.9551H158.618L155.838 22.2564ZM155.904 18.1619H161.403V19.6814H155.904V18.1619ZM164.874 22.2564V11.8135H171.553V13.3994H166.762V16.2344H171.095V17.8202H166.762V22.2564H164.874Z" fill="#009FD7"/>
<path d="M125.375 22.4094C124.662 22.4094 124.049 22.2802 123.537 22.0218C123.024 21.7634 122.629 21.415 122.351 20.9765C122.076 20.5346 121.938 20.0366 121.938 19.4825C121.938 19.0644 122.023 18.6939 122.193 18.3709C122.366 18.048 122.604 17.7488 122.905 17.4735C123.211 17.1981 123.564 16.9245 123.965 16.6525L125.813 15.393C126.084 15.2163 126.29 15.0293 126.429 14.8322C126.571 14.635 126.642 14.4038 126.642 14.1387C126.642 13.9143 126.548 13.7019 126.358 13.5013C126.171 13.3007 125.912 13.2005 125.583 13.2005C125.363 13.2005 125.168 13.2532 124.998 13.3585C124.832 13.4605 124.701 13.5948 124.606 13.7613C124.515 13.9279 124.469 14.1047 124.469 14.2916C124.469 14.5194 124.531 14.7506 124.657 14.9852C124.786 15.2197 124.952 15.4627 125.156 15.7143C125.363 15.9659 125.583 16.2327 125.818 16.5148L130.71 22.2564H128.715L124.652 17.5958C124.35 17.2423 124.058 16.8939 123.776 16.5506C123.498 16.2072 123.269 15.8503 123.089 15.4797C122.913 15.1058 122.824 14.7013 122.824 14.2661C122.824 13.7733 122.938 13.333 123.166 12.9455C123.393 12.5545 123.71 12.2469 124.118 12.0225C124.528 11.7982 125.009 11.686 125.558 11.686C126.108 11.686 126.58 11.7948 126.973 12.0123C127.367 12.23 127.671 12.5189 127.884 12.8792C128.099 13.2395 128.206 13.6322 128.206 14.0571C128.206 14.55 128.083 14.9919 127.839 15.3828C127.594 15.7704 127.255 16.1222 126.821 16.4384L124.713 17.9834C124.367 18.2349 124.119 18.4899 123.97 18.7482C123.82 19.0032 123.746 19.2208 123.746 19.4009C123.746 19.6762 123.815 19.9261 123.954 20.1505C124.093 20.3749 124.289 20.555 124.54 20.691C124.794 20.8236 125.092 20.8898 125.431 20.8898C125.804 20.8898 126.173 20.8066 126.535 20.64C126.899 20.47 127.229 20.2287 127.528 19.916C127.827 19.6032 128.064 19.2292 128.241 18.7942C128.418 18.3556 128.506 17.8695 128.506 17.3358H130.089C130.089 17.9953 130.016 18.5698 129.87 19.0593C129.725 19.5454 129.536 19.9567 129.305 20.2932C129.074 20.6264 128.83 20.8932 128.572 21.0938C128.49 21.1516 128.413 21.2094 128.337 21.2672C128.263 21.325 128.185 21.3827 128.104 21.4405C127.737 21.7737 127.307 22.0185 126.816 22.1748C126.327 22.3312 125.847 22.4094 125.375 22.4094Z" fill="white"/>
<path d="M82.3928 38.0329L80.7126 38.2165C80.6653 38.0466 80.5821 37.8867 80.4631 37.7372C80.3477 37.5876 80.1922 37.467 79.9951 37.3751C79.7979 37.2834 79.5571 37.2375 79.2718 37.2375C78.8883 37.2375 78.5665 37.3208 78.3048 37.4873C78.0468 37.6539 77.9199 37.8698 77.9228 38.1349C77.9199 38.3627 78.003 38.548 78.1722 38.6907C78.3457 38.8335 78.631 38.9507 79.0281 39.0426L80.3614 39.3281C81.1018 39.4878 81.6516 39.7411 82.0115 40.0878C82.3742 40.4346 82.5577 40.8884 82.5613 41.4493C82.5577 41.9422 82.4136 42.3774 82.1283 42.7546C81.8466 43.1286 81.4545 43.421 80.952 43.6317C80.4495 43.8425 79.8732 43.9479 79.2209 43.9479C78.264 43.9479 77.4934 43.7473 76.9099 43.3462C76.3264 42.9417 75.978 42.379 75.8662 41.6583L77.6633 41.485C77.745 41.8385 77.9177 42.1054 78.183 42.2855C78.4475 42.4657 78.7922 42.5558 79.2159 42.5558C79.6539 42.5558 80.0051 42.4657 80.2703 42.2855C80.5384 42.1054 80.6725 41.8827 80.6725 41.6176C80.6725 41.3932 80.5857 41.208 80.4122 41.0618C80.2431 40.9156 79.9779 40.8034 79.618 40.7252L78.2847 40.4448C77.5342 40.2884 76.9794 40.025 76.6196 39.6545C76.2597 39.2805 76.082 38.808 76.0848 38.2369C76.082 37.7542 76.2124 37.3361 76.4769 36.9826C76.745 36.6256 77.1171 36.3503 77.5923 36.1565C78.0704 35.9593 78.6224 35.8608 79.2467 35.8608C80.1628 35.8608 80.8846 36.0562 81.4101 36.4471C81.9398 36.838 82.2674 37.3667 82.3928 38.0329ZM87.4915 43.9479C86.7281 43.9479 86.0658 43.7796 85.5059 43.443C84.9461 43.1065 84.5117 42.6357 84.2028 42.0306C83.8974 41.4255 83.7447 40.7185 83.7447 39.9094C83.7447 39.1004 83.8974 38.3916 84.2028 37.7831C84.5117 37.1746 84.9461 36.7021 85.5059 36.3655C86.0658 36.029 86.7281 35.8608 87.4915 35.8608C88.2549 35.8608 88.9172 36.029 89.4771 36.3655C90.0369 36.7021 90.4699 37.1746 90.7752 37.7831C91.0842 38.3916 91.2383 39.1004 91.2383 39.9094C91.2383 40.7185 91.0842 41.4255 90.7752 42.0306C90.4699 42.6357 90.0369 43.1065 89.4771 43.443C88.9172 43.7796 88.2549 43.9479 87.4915 43.9479ZM87.5015 42.4691C87.9159 42.4691 88.2621 42.3553 88.5402 42.1275C88.8183 41.8963 89.0255 41.587 89.1617 41.1994C89.3007 40.8119 89.3703 40.3802 89.3703 39.9043C89.3703 39.425 89.3007 38.9916 89.1617 38.604C89.0255 38.2131 88.8183 37.902 88.5402 37.6709C88.2621 37.4397 87.9159 37.3242 87.5015 37.3242C87.0772 37.3242 86.7245 37.4397 86.4428 37.6709C86.1647 37.902 85.9561 38.2131 85.8163 38.604C85.6808 38.9916 85.6127 39.425 85.6127 39.9043C85.6127 40.3802 85.6808 40.8119 85.8163 41.1994C85.9561 41.587 86.1647 41.8963 86.4428 42.1275C86.7245 42.3553 87.0772 42.4691 87.5015 42.4691ZM96.2137 43.9479C95.4331 43.9479 94.7629 43.7762 94.203 43.4328C93.6461 43.0895 93.2167 42.6153 92.9149 42.0102C92.616 41.4017 92.4669 40.7015 92.4669 39.9094C92.4669 39.1139 92.6196 38.412 92.925 37.8035C93.2303 37.1916 93.6611 36.7157 94.2181 36.3757C94.7779 36.0324 95.4403 35.8608 96.2037 35.8608C96.838 35.8608 97.4 35.978 97.8889 36.2126C98.3806 36.4437 98.7727 36.7718 99.0645 37.1967C99.3569 37.6182 99.5232 38.1111 99.5634 38.6754H97.8022C97.7312 38.2981 97.5613 37.9837 97.2932 37.7321C97.028 37.4771 96.6739 37.3496 96.2287 37.3496C95.8524 37.3496 95.5213 37.4517 95.236 37.6556C94.9514 37.8562 94.7292 38.1451 94.5693 38.5224C94.4131 38.8998 94.3349 39.3519 94.3349 39.8788C94.3349 40.4125 94.4131 40.8714 94.5693 41.2556C94.7256 41.6363 94.9442 41.9303 95.2259 42.1377C95.5112 42.3417 95.8453 42.4436 96.2287 42.4436C96.5004 42.4436 96.7434 42.3927 96.957 42.2906C97.1742 42.1852 97.3556 42.034 97.5018 41.8368C97.648 41.6397 97.7477 41.4 97.8022 41.1179H99.5634C99.5196 41.672 99.3569 42.1632 99.0752 42.5915C98.7935 43.0164 98.41 43.3495 97.924 43.5909C97.4387 43.8288 96.8689 43.9479 96.2137 43.9479ZM101.077 43.7949V35.9627H102.92V43.7949H101.077ZM102.003 34.8511C101.712 34.8511 101.461 34.7543 101.25 34.5605C101.039 34.3633 100.935 34.1271 100.935 33.8517C100.935 33.5729 101.039 33.3367 101.25 33.143C101.461 32.9457 101.712 32.8472 102.003 32.8472C102.299 32.8472 102.55 32.9457 102.757 33.143C102.968 33.3367 103.073 33.5729 103.073 33.8517C103.073 34.1271 102.968 34.3633 102.757 34.5605C102.55 34.7543 102.299 34.8511 102.003 34.8511ZM108.277 43.9479C107.493 43.9479 106.816 43.7847 106.246 43.4583C105.679 43.1286 105.243 42.6629 104.937 42.0612C104.632 41.4561 104.479 40.744 104.479 39.9247C104.479 39.119 104.632 38.412 104.937 37.8035C105.246 37.1916 105.677 36.7157 106.23 36.3757C106.784 36.0324 107.433 35.8608 108.18 35.8608C108.662 35.8608 109.117 35.9389 109.544 36.0953C109.976 36.2482 110.356 36.4862 110.685 36.8092C111.017 37.1321 111.279 37.5434 111.469 38.0431C111.659 38.5394 111.754 39.1309 111.754 39.8176V40.3836H105.344V39.1394H109.987C109.984 38.7859 109.908 38.4714 109.759 38.1961C109.609 37.9173 109.4 37.6981 109.132 37.5383C108.868 37.3786 108.559 37.2987 108.205 37.2987C107.829 37.2987 107.498 37.3904 107.213 37.574C106.928 37.7542 106.706 37.9921 106.546 38.2879C106.39 38.5802 106.31 38.9015 106.306 39.2516V40.3377C106.306 40.7932 106.39 41.1841 106.556 41.5105C106.722 41.8334 106.955 42.0816 107.253 42.255C107.552 42.425 107.902 42.5099 108.302 42.5099C108.57 42.5099 108.813 42.4725 109.03 42.3978C109.248 42.3196 109.436 42.2057 109.595 42.0561C109.755 41.9065 109.875 41.7212 109.957 41.5003L111.678 41.6941C111.569 42.1496 111.362 42.5473 111.057 42.8873C110.754 43.2238 110.368 43.4855 109.896 43.6725C109.424 43.856 108.884 43.9479 108.277 43.9479ZM117.218 35.9627V37.3904H112.723V35.9627H117.218ZM113.832 34.0863H115.675V41.4391C115.675 41.6873 115.712 41.8776 115.788 42.0102C115.865 42.1394 115.967 42.2277 116.093 42.2753C116.219 42.3229 116.358 42.3468 116.51 42.3468C116.626 42.3468 116.731 42.3382 116.826 42.3212C116.925 42.3043 116.999 42.289 117.05 42.2753L117.36 43.7184C117.262 43.7524 117.121 43.7898 116.938 43.8306C116.758 43.8713 116.538 43.8952 116.276 43.9019C115.814 43.9156 115.399 43.8459 115.029 43.6929C114.659 43.5366 114.366 43.2952 114.148 42.9688C113.934 42.6425 113.829 42.2346 113.832 41.7451V34.0863ZM119.905 46.7319C119.654 46.7319 119.421 46.7115 119.207 46.6708C118.997 46.6334 118.829 46.5891 118.703 46.5382L119.131 45.1003C119.399 45.1784 119.638 45.2158 119.848 45.2124C120.059 45.209 120.244 45.1428 120.404 45.0135C120.567 44.8878 120.704 44.677 120.816 44.3813L120.974 43.9581L118.138 35.9627H120.093L121.895 41.8776H121.977L123.784 35.9627H125.744L122.613 44.7433C122.467 45.158 122.273 45.5133 122.033 45.809C121.792 46.1082 121.496 46.3359 121.147 46.4923C120.801 46.652 120.387 46.7319 119.905 46.7319ZM133.986 43.9479C133.223 43.9479 132.561 43.7796 132.001 43.443C131.441 43.1065 131.006 42.6357 130.697 42.0306C130.392 41.4255 130.239 40.7185 130.239 39.9094C130.239 39.1004 130.392 38.3916 130.697 37.7831C131.006 37.1746 131.441 36.7021 132.001 36.3655C132.561 36.029 133.223 35.8608 133.986 35.8608C134.75 35.8608 135.412 36.029 135.972 36.3655C136.532 36.7021 136.965 37.1746 137.27 37.7831C137.579 38.3916 137.734 39.1004 137.734 39.9094C137.734 40.7185 137.579 41.4255 137.27 42.0306C136.965 42.6357 136.532 43.1065 135.972 43.443C135.412 43.7796 134.75 43.9479 133.986 43.9479ZM133.997 42.4691C134.411 42.4691 134.757 42.3553 135.035 42.1275C135.314 41.8963 135.521 41.587 135.656 41.1994C135.795 40.8119 135.865 40.3802 135.865 39.9043C135.865 39.425 135.795 38.9916 135.656 38.604C135.521 38.2131 135.314 37.902 135.035 37.6709C134.757 37.4397 134.411 37.3242 133.997 37.3242C133.573 37.3242 133.219 37.4397 132.938 37.6709C132.659 37.902 132.451 38.2131 132.312 38.604C132.176 38.9916 132.108 39.425 132.108 39.9043C132.108 40.3802 132.176 40.8119 132.312 41.1994C132.451 41.587 132.659 41.8963 132.938 42.1275C133.219 42.3553 133.573 42.4691 133.997 42.4691ZM143.258 35.9627V37.3904H138.636V35.9627H143.258ZM139.792 43.7949V35.2234C139.792 34.6965 139.9 34.2579 140.117 33.9078C140.338 33.5576 140.633 33.2959 141.003 33.1225C141.373 32.9492 141.784 32.8625 142.235 32.8625C142.554 32.8625 142.837 32.8879 143.085 32.939C143.333 32.99 143.516 33.0358 143.635 33.0766L143.269 34.5044C143.191 34.4806 143.092 34.4568 142.974 34.433C142.855 34.4058 142.722 34.3922 142.577 34.3922C142.233 34.3922 141.991 34.4755 141.848 34.642C141.709 34.8052 141.64 35.0398 141.64 35.3457V43.7949H139.792ZM147.881 34.9378V33.352H156.2V34.9378H152.977V43.7949H151.104V34.9378H147.881ZM161.642 40.5009V35.9627H163.485V43.7949H161.698V42.4029H161.617C161.44 42.8414 161.15 43.2 160.746 43.4788C160.346 43.7575 159.852 43.8968 159.265 43.8968C158.752 43.8968 158.299 43.783 157.906 43.5552C157.515 43.324 157.21 42.9892 156.989 42.5507C156.768 42.1088 156.658 41.5751 156.658 40.9496V35.9627H158.501V40.664C158.501 41.1604 158.637 41.5547 158.908 41.847C159.18 42.1394 159.536 42.2855 159.977 42.2855C160.249 42.2855 160.512 42.2193 160.766 42.0867C161.021 41.9541 161.229 41.757 161.393 41.4952C161.559 41.2301 161.642 40.8986 161.642 40.5009ZM165.381 43.7949V35.9627H167.167V37.2681H167.249C167.391 36.816 167.636 36.4675 167.982 36.2227C168.332 35.9746 168.73 35.8506 169.178 35.8506C169.28 35.8506 169.394 35.8557 169.519 35.8659C169.648 35.8726 169.755 35.8845 169.84 35.9015V37.5995C169.762 37.5723 169.638 37.5485 169.469 37.5281C169.302 37.5044 169.141 37.4924 168.985 37.4924C168.648 37.4924 168.347 37.5655 168.079 37.7117C167.813 37.8545 167.605 38.0533 167.452 38.3083C167.299 38.5633 167.223 38.8573 167.223 39.1904V43.7949H165.381ZM172.744 41.3371L172.739 39.1088H173.035L175.845 35.9627H177.999L174.541 39.8176H174.159L172.744 41.3371ZM171.064 43.7949V33.352H172.907V43.7949H171.064ZM175.972 43.7949L173.427 40.2306L174.669 38.9303L178.176 43.7949H175.972ZM179.227 43.7949V35.9627H180.988V37.2936H181.079C181.242 36.8448 181.512 36.4947 181.889 36.2431C182.266 35.9882 182.715 35.8608 183.239 35.8608C183.768 35.8608 184.214 35.9899 184.577 36.2482C184.944 36.5032 185.202 36.8517 185.351 37.2936H185.433C185.605 36.8584 185.897 36.5117 186.308 36.2533C186.722 35.9916 187.213 35.8608 187.78 35.8608C188.499 35.8608 189.086 36.0885 189.541 36.544C189.996 36.9995 190.223 37.6641 190.223 38.5378V43.7949H188.375V38.8233C188.375 38.3372 188.246 37.9819 187.988 37.7576C187.73 37.5298 187.415 37.416 187.041 37.416C186.597 37.416 186.248 37.5553 185.998 37.834C185.75 38.1094 185.626 38.4681 185.626 38.91V43.7949H183.818V38.7468C183.818 38.3423 183.697 38.0193 183.452 37.778C183.211 37.5366 182.895 37.416 182.505 37.416C182.241 37.416 181.999 37.484 181.782 37.6199C181.565 37.7525 181.392 37.9412 181.263 38.1859C181.134 38.4273 181.069 38.7094 181.069 39.0324V43.7949H179.227ZM195.555 43.9479C194.771 43.9479 194.093 43.7847 193.523 43.4583C192.956 43.1286 192.521 42.6629 192.215 42.0612C191.909 41.4561 191.756 40.744 191.756 39.9247C191.756 39.119 191.909 38.412 192.215 37.8035C192.524 37.1916 192.955 36.7157 193.508 36.3757C194.061 36.0324 194.711 35.8608 195.458 35.8608C195.94 35.8608 196.395 35.9389 196.822 36.0953C197.254 36.2482 197.634 36.4862 197.963 36.8092C198.295 37.1321 198.557 37.5434 198.747 38.0431C198.937 38.5394 199.032 39.1309 199.032 39.8176V40.3836H192.622V39.1394H197.265C197.262 38.7859 197.186 38.4714 197.036 38.1961C196.887 37.9173 196.678 37.6981 196.41 37.5383C196.145 37.3786 195.837 37.2987 195.483 37.2987C195.107 37.2987 194.776 37.3904 194.49 37.574C194.206 37.7542 193.983 37.9921 193.824 38.2879C193.667 38.5802 193.588 38.9015 193.584 39.2516V40.3377C193.584 40.7932 193.667 41.1841 193.834 41.5105C194 41.8334 194.233 42.0816 194.531 42.255C194.83 42.425 195.18 42.5099 195.58 42.5099C195.848 42.5099 196.091 42.4725 196.308 42.3978C196.525 42.3196 196.714 42.2057 196.873 42.0561C197.033 41.9065 197.153 41.7212 197.234 41.5003L198.955 41.6941C198.847 42.1496 198.64 42.5473 198.335 42.8873C198.032 43.2238 197.645 43.4855 197.173 43.6725C196.702 43.856 196.162 43.9479 195.555 43.9479ZM202.434 39.2058V43.7949H200.591V35.9627H202.352V37.2936H202.444C202.624 36.855 202.911 36.5066 203.304 36.2482C203.701 35.9899 204.192 35.8608 204.776 35.8608C205.316 35.8608 205.785 35.9763 206.186 36.2075C206.589 36.4386 206.902 36.7735 207.123 37.212C207.346 37.6505 207.457 38.1825 207.454 38.808V43.7949H205.61V39.0935C205.61 38.57 205.475 38.1604 205.203 37.8647C204.935 37.5689 204.564 37.4211 204.089 37.4211C203.766 37.4211 203.479 37.4924 203.228 37.6352C202.98 37.7746 202.785 37.9768 202.643 38.242C202.504 38.5071 202.434 38.8284 202.434 39.2058ZM209.327 43.7949V35.9627H211.17V43.7949H209.327ZM210.254 34.8511C209.962 34.8511 209.71 34.7543 209.5 34.5605C209.29 34.3633 209.184 34.1271 209.184 33.8517C209.184 33.5729 209.29 33.3367 209.5 33.143C209.71 32.9457 209.962 32.8472 210.254 32.8472C210.549 32.8472 210.8 32.9457 211.007 33.143C211.217 33.3367 211.323 33.5729 211.323 33.8517C211.323 34.1271 211.217 34.3633 211.007 34.5605C210.8 34.7543 210.549 34.8511 210.254 34.8511ZM219.246 38.0329L217.565 38.2165C217.518 38.0466 217.435 37.8867 217.316 37.7372C217.2 37.5876 217.045 37.467 216.848 37.3751C216.651 37.2834 216.41 37.2375 216.125 37.2375C215.741 37.2375 215.419 37.3208 215.158 37.4873C214.899 37.6539 214.773 37.8698 214.775 38.1349C214.773 38.3627 214.856 38.548 215.025 38.6907C215.198 38.8335 215.484 38.9507 215.881 39.0426L217.214 39.3281C217.955 39.4878 218.504 39.7411 218.863 40.0878C219.227 40.4346 219.41 40.8884 219.414 41.4493C219.41 41.9422 219.266 42.3774 218.981 42.7546C218.699 43.1286 218.307 43.421 217.805 43.6317C217.302 43.8425 216.726 43.9479 216.074 43.9479C215.117 43.9479 214.346 43.7473 213.763 43.3462C213.179 42.9417 212.831 42.379 212.719 41.6583L214.516 41.485C214.598 41.8385 214.77 42.1054 215.036 42.2855C215.3 42.4657 215.644 42.5558 216.069 42.5558C216.507 42.5558 216.858 42.4657 217.123 42.2855C217.391 42.1054 217.525 41.8827 217.525 41.6176C217.525 41.3932 217.438 41.208 217.265 41.0618C217.096 40.9156 216.831 40.8034 216.471 40.7252L215.137 40.4448C214.387 40.2884 213.832 40.025 213.472 39.6545C213.112 39.2805 212.935 38.808 212.938 38.2369C212.935 37.7542 213.065 37.3361 213.33 36.9826C213.598 36.6256 213.97 36.3503 214.445 36.1565C214.923 35.9593 215.475 35.8608 216.099 35.8608C217.016 35.8608 217.737 36.0562 218.263 36.4471C218.792 36.838 219.12 37.3667 219.246 38.0329ZM224.838 35.9627V37.3904H220.343V35.9627H224.838ZM221.453 34.0863H223.296V41.4391C223.296 41.6873 223.333 41.8776 223.407 42.0102C223.485 42.1394 223.587 42.2277 223.713 42.2753C223.839 42.3229 223.978 42.3468 224.131 42.3468C224.246 42.3468 224.351 42.3382 224.446 42.3212C224.544 42.3043 224.619 42.289 224.67 42.2753L224.981 43.7184C224.883 43.7524 224.741 43.7898 224.558 43.8306C224.378 43.8713 224.158 43.8952 223.896 43.9019C223.435 43.9156 223.019 43.8459 222.649 43.6929C222.279 43.5366 221.985 43.2952 221.768 42.9688C221.554 42.6425 221.449 42.2346 221.453 41.7451V34.0863ZM228.629 43.953C228.134 43.953 227.687 43.8646 227.291 43.6878C226.897 43.5076 226.585 43.2425 226.354 42.8923C226.126 42.5422 226.013 42.1105 226.013 41.5972C226.013 41.1553 226.094 40.7898 226.257 40.5009C226.42 40.212 226.642 39.9808 226.924 39.8074C227.206 39.634 227.523 39.5032 227.876 39.4147C228.232 39.323 228.601 39.2567 228.981 39.2159C229.439 39.1683 229.811 39.1258 230.096 39.0884C230.381 39.0477 230.588 38.9865 230.717 38.9049C230.849 38.8199 230.915 38.689 230.915 38.5122V38.4816C230.915 38.0975 230.802 37.8001 230.574 37.5893C230.347 37.3786 230.019 37.2732 229.592 37.2732C229.14 37.2732 228.782 37.3718 228.518 37.5689C228.257 37.766 228.08 37.999 227.989 38.2675L226.267 38.0227C226.403 37.5468 226.627 37.1491 226.939 36.8296C227.252 36.5066 227.634 36.2652 228.085 36.1055C228.536 35.9423 229.035 35.8608 229.582 35.8608C229.958 35.8608 230.333 35.9049 230.707 35.9933C231.08 36.0817 231.421 36.2278 231.73 36.4318C232.039 36.6324 232.287 36.906 232.474 37.2528C232.664 37.5995 232.758 38.0329 232.758 38.5531V43.7949H230.987V42.719H230.926C230.813 42.9366 230.656 43.1405 230.452 43.3309C230.252 43.5178 229.999 43.6691 229.694 43.7847C229.391 43.8968 229.037 43.953 228.629 43.953ZM229.108 42.5966C229.478 42.5966 229.799 42.5235 230.07 42.3774C230.342 42.2277 230.55 42.0306 230.697 41.7858C230.846 41.5411 230.92 41.2742 230.92 40.9853V40.0623C230.863 40.1099 230.765 40.1542 230.626 40.1949C230.489 40.2357 230.337 40.2714 230.167 40.302C229.998 40.3326 229.829 40.3598 229.663 40.3836C229.497 40.4074 229.353 40.4278 229.23 40.4448C228.956 40.4822 228.71 40.5434 228.492 40.6284C228.275 40.7134 228.104 40.8323 227.978 40.9853C227.852 41.1349 227.79 41.3287 227.79 41.5666C227.79 41.9065 227.913 42.1632 228.161 42.3366C228.409 42.5099 228.725 42.5966 229.108 42.5966ZM236.455 39.2058V43.7949H234.612V35.9627H236.373V37.2936H236.465C236.645 36.855 236.931 36.5066 237.325 36.2482C237.722 35.9899 238.212 35.8608 238.797 35.8608C239.336 35.8608 239.806 35.9763 240.207 36.2075C240.61 36.4386 240.923 36.7735 241.143 37.212C241.367 37.6505 241.478 38.1825 241.474 38.808V43.7949H239.631V39.0935C239.631 38.57 239.496 38.1604 239.224 37.8647C238.956 37.5689 238.584 37.4211 238.109 37.4211C237.787 37.4211 237.5 37.4924 237.249 37.6352C237.001 37.7746 236.806 37.9768 236.663 38.242C236.524 38.5071 236.455 38.8284 236.455 39.2058Z" fill="white"/>
<path d="M35.1027 54.1184C37.248 54.1184 38.9871 53.0786 38.9871 51.796C38.9871 50.5133 37.248 49.4734 35.1027 49.4734C32.9573 49.4734 31.2183 50.5133 31.2183 51.796C31.2183 53.0786 32.9573 54.1184 35.1027 54.1184Z" fill="#19A3DD"/>
<path d="M43.6909 32.9705H24.0186V51.7965H43.6909V32.9705Z" fill="#19A3DD"/>
<path d="M33.8877 41.238C34.019 40.5488 34.3714 39.9214 34.8913 39.4513C35.4067 38.9808 35.9984 38.6018 36.6409 38.3306C37.8678 37.7702 39.1905 37.4458 40.4689 37.0132C41.1079 36.8044 41.7305 36.5481 42.3314 36.2464C42.6303 36.1138 42.9087 35.9392 43.1583 35.7278C43.3448 35.5484 43.5239 35.3592 43.7227 35.1945C44.2551 34.757 44.4417 35.3567 44.4318 35.8212C44.4146 36.5585 43.9091 37.1164 43.3006 37.5096L42.2357 38.2002L43.281 37.6768C43.7079 37.463 44.4465 38.0208 44.5079 38.4411C44.5543 38.8006 44.467 39.1645 44.2625 39.4635C44.1179 39.6132 43.9612 39.7504 43.7939 39.874L43.0012 40.0215C43.3276 39.992 43.7791 39.815 44.076 40.0215C44.5546 40.3532 44.9472 41.297 44.5472 41.9557C44.4242 42.1327 44.267 42.2834 44.085 42.3986C43.9029 42.5138 43.6996 42.5914 43.4871 42.6266C43.3006 42.6586 43.0896 42.6586 43.0896 42.6708C43.0896 42.6831 43.8258 42.516 44.2306 42.8625C44.5938 43.1796 44.5913 43.8456 44.4073 44.3126C44.3127 44.5315 44.1714 44.727 43.9934 44.8853C43.8153 45.0437 43.6049 45.1611 43.3767 45.2293C43.0516 45.3135 42.7085 45.2937 42.3952 45.1728L42.0345 45.0204C42.2798 45.1335 42.6381 45.2343 42.8197 45.426C42.9647 45.637 43.0252 45.8949 42.989 46.1485C42.9252 46.6892 42.4762 47.2274 41.8848 47.2004C41.693 47.1989 41.5032 47.1613 41.3253 47.0898C41.6247 47.1513 41.7743 47.2053 41.7743 47.257C41.7743 47.3086 41.6786 47.3356 41.4946 47.37C40.6603 47.4388 39.5462 47.5125 38.3586 47.5298C37.7941 47.5522 37.2287 47.5415 36.6654 47.4978C36.3146 47.4978 35.9023 47.5642 35.5809 47.4044C35.5318 47.3798 35.5465 47.1832 35.5171 47.1316C35.3944 46.9006 35.1097 46.8588 34.8766 46.8416C34.4718 46.8072 34.3564 47.0874 34.0153 47.2152C33.981 45.847 33.9474 44.4781 33.9147 43.1084L33.8779 41.5551C33.8727 41.4492 33.876 41.3433 33.8877 41.238Z" fill="white" stroke="#19A3DD" stroke-width="0.171162" stroke-miterlimit="10"/>
<path d="M42.2357 38.2004C41.6885 38.542 40.7634 39.0287 40.626 39.7119C40.5303 40.1543 41.1167 40.0929 41.3793 40.0855L42.9743 40.029C42.5253 40.0437 42.0738 40.1371 41.6247 40.1691C41.2114 40.1642 40.7991 40.2121 40.3978 40.3116C40.2575 40.3544 40.1272 40.4249 40.0146 40.519C39.9021 40.6132 39.8096 40.729 39.7426 40.8596C39.5414 41.2996 39.7794 41.8427 40.1696 42.1278C41.0137 42.7398 42.0541 42.3933 42.9817 42.6587C42.14 42.6587 41.3204 42.6267 40.4812 42.5727C40.387 42.5581 40.2909 42.5624 40.1984 42.5853C40.1059 42.6083 40.0188 42.6494 39.9423 42.7064C39.8658 42.7633 39.8014 42.8349 39.7528 42.917C39.7042 42.9991 39.6724 43.0901 39.6592 43.1847C39.5709 44.2734 41.2885 44.6765 42.0222 45.0206C41.2861 44.7748 40.4174 44.3078 39.6371 44.5487C38.7733 44.8191 39.031 45.7628 39.561 46.2519C40.0518 46.6967 40.7045 46.8811 41.3131 47.0899" stroke="#19A3DD" stroke-width="0.171162" stroke-miterlimit="10"/>
<path d="M34.1247 47.2898L31.4489 50.7163C31.1008 51.1622 31.179 51.806 31.6236 52.1542C32.0682 52.5025 32.7108 52.4235 33.059 51.9776L35.7348 48.5511C36.0829 48.1052 36.0047 47.4614 35.5602 47.1132C35.1155 46.7649 34.4729 46.8439 34.1247 47.2898Z" fill="white" stroke="#19A3DD" stroke-width="0.171162" stroke-miterlimit="10"/>
<path d="M25.6846 45.1135V45.0422C25.6777 44.3362 25.7477 43.6316 25.8932 42.9409C26.0477 42.2429 26.3226 41.5867 26.3839 40.8665C26.5238 39.3919 26.4576 37.8878 26.7373 36.4255C26.7669 36.2234 26.829 36.0275 26.9213 35.8455C27.1103 35.5088 27.5201 35.3244 27.8219 35.639C27.9182 35.7513 27.9961 35.8782 28.0525 36.0151C28.3468 36.556 28.5146 37.1569 28.5433 37.7723C28.54 38.3108 28.4574 38.8457 28.2979 39.36C28.0992 40.0555 27.871 40.4365 27.9691 40.5053C28.0673 40.5741 28.4353 40.2841 28.7053 39.9498C28.8893 39.7041 28.9506 39.4435 29.4414 38.1852C29.5641 37.8534 29.6451 37.4897 29.9101 37.2365C29.9993 37.1417 30.1094 37.0689 30.2316 37.0243C30.3537 36.9796 30.4847 36.9642 30.6139 36.9793C30.7432 36.9943 30.867 37.0394 30.9758 37.1109C31.0845 37.1825 31.175 37.2785 31.2401 37.3914C31.3884 37.6521 31.4726 37.9444 31.4854 38.2442C31.4854 38.3671 31.5542 39.1289 31.4585 39.1904C31.7971 38.979 32.3639 38.7357 32.7664 38.9127C33.3332 39.1585 33.1492 40.1243 33.1271 40.6109C33.1271 40.8715 33.5638 40.493 34.2214 40.5717C34.429 40.5717 34.6323 40.6305 34.8079 40.7412C35.1441 40.987 35.257 41.508 35.257 41.9062V42.2896C35.257 41.8496 36.1257 41.9086 36.3146 42.1274C36.5919 42.4493 36.3391 43.1326 36.2312 43.4791C35.9439 44.2829 35.5696 45.0527 35.1147 45.7746C34.7588 46.3915 34.4202 47.0035 34.0938 47.6449C33.7945 48.2225 33.505 48.7312 33.4142 49.3899C33.3568 49.9146 33.3339 50.4425 33.3454 50.9702C33.3454 52.3736 33.3283 53.7228 33.5909 55.109L33.6326 55.2564C33.3762 55.2483 33.1198 55.2564 32.8645 55.2811C32.3465 55.2885 31.8292 55.2415 31.3211 55.1409C30.2144 54.9345 28.9531 54.5044 28.0599 53.7917C27.5691 53.4107 26.7446 52.902 26.6808 52.7102C26.6342 52.5677 26.7373 52.3907 26.779 52.2605C26.9053 51.8223 26.9745 51.3696 26.9851 50.9137C27.0023 50.5377 27.0956 50.0092 26.9532 49.6504C26.902 49.5458 26.8386 49.4476 26.7643 49.3579C26.4467 48.8844 26.1818 48.3776 25.9741 47.8464C25.6282 47.0354 25.6822 45.9909 25.6846 45.1135Z" fill="white" stroke="#19A3DD" stroke-width="0.171162" stroke-miterlimit="10"/>
<path d="M11.6544 5.75952L10.627 6.3611L13.936 12.0304L14.9634 11.4289L11.6544 5.75952Z" fill="#19A3DD"/>
<path d="M13.421 4.8845L12.9567 4.10034L8.3457 6.83909L8.80998 7.62326L13.421 4.8845Z" fill="#19A3DD"/>
<path d="M30.0183 6.89611L28.8798 6.98704L26.0309 4.02304L25.1622 5.17325L25.1401 5.15605L25.5573 7.61622L24.382 7.81531L23.2017 0.859968L24.3746 0.660895L24.9365 3.9616L25.3929 3.35946L25.9327 2.64427L27.8492 0.10791H28.9902L26.5708 3.3103L30.0183 6.89611Z" fill="#19A3DD"/>
<path d="M60.4728 7.13014L59.5772 8.48187L58.2399 10.4997C57.9937 10.9406 57.6526 11.3209 57.2411 11.613C56.7968 11.8918 56.2686 12.005 55.7492 11.9325C55.1014 11.8268 54.5935 11.4016 54.1322 10.9494C53.9687 10.7919 53.8177 10.6217 53.6807 10.4407L54.2647 9.80412C54.4281 10.0894 54.6456 10.3399 54.9051 10.5415C55.3174 10.8535 55.8596 11.1043 56.3774 10.9224C56.6801 10.7923 56.9366 10.5739 57.1136 10.2957C57.9013 9.2266 58.4582 8.0198 59.187 6.91632L59.2459 6.85488L56.9761 5.3483L57.4792 4.58887L60.7182 6.73937C60.7182 6.73937 60.4728 7.12768 60.4728 7.13014Z" fill="#1CA3DD"/>
<path d="M45.0234 7.59188L43.8996 7.3854L41.9095 3.78733L40.7758 4.67456L40.7586 4.64999L40.5279 7.13474L39.3403 7.02414L39.9906 0L41.1758 0.110597L40.8691 3.44571L41.4653 2.9812L42.1696 2.42822L44.6749 0.474339L45.7767 0.769261L42.6162 3.23681L45.0234 7.59188Z" fill="#19A3DD"/>
<path d="M34.6069 54.8905C52.928 54.8905 67.7802 44.381 67.7802 31.4169C67.7802 18.4528 52.928 7.94336 34.6069 7.94336C16.2858 7.94336 1.43359 18.4528 1.43359 31.4169C1.43359 44.381 16.2858 54.8905 34.6069 54.8905Z" stroke="#19A3DD" stroke-width="2.39627" stroke-miterlimit="10"/>
<path d="M34.6707 54.1945C44.0827 54.1945 51.7126 44.2637 51.7126 32.0136C51.7126 19.7634 44.0827 9.83276 34.6707 9.83276C25.2588 9.83276 17.6289 19.7634 17.6289 32.0136C17.6289 44.2637 25.2588 54.1945 34.6707 54.1945Z" stroke="#19A3DD" stroke-width="2.39627" stroke-miterlimit="10"/>
<path d="M34.7933 54.8905C48.8401 54.8905 60.2272 44.381 60.2272 31.4169C60.2272 18.4528 48.8401 7.94336 34.7933 7.94336C20.7465 7.94336 9.35938 18.4528 9.35938 31.4169C9.35938 44.381 20.7465 54.8905 34.7933 54.8905Z" stroke="#19A3DD" stroke-width="2.39627" stroke-miterlimit="10"/>
<path d="M67.0169 30.7407H2.14258V32.0925H67.0169V30.7407Z" fill="#19A3DD"/>
<path d="M43.6934 30.1265H42.0322V33.1691H43.6934V30.1265Z" fill="#19A3DD"/>
<path d="M27.6627 30.0212H26.2075V33.145H27.6627V30.0212Z" fill="#19A3DD"/>
<path d="M35.4361 29.8958H33.7749V32.9384H35.4361V29.8958Z" fill="#19A3DD"/>
<path d="M43.8874 10.3813H24.8408V29.9275H43.8874V10.3813Z" fill="white" stroke="#19A3DD" stroke-width="1.02697" stroke-miterlimit="10"/>
<path d="M43.708 29.0597L43.2761 29.3252L40.0714 23.9182L39.8555 23.5496L39.831 23.5102C39.6813 23.2645 39.5389 22.999 39.3843 22.7459C39.2966 22.5652 39.1529 22.4177 38.9746 22.3256C38.8894 22.2928 38.798 22.2794 38.7071 22.2863C38.6625 22.288 38.6181 22.2937 38.5746 22.3035L38.5304 22.3182C38.3877 22.3669 38.265 22.4609 38.1807 22.5861C38.0966 22.7113 38.0556 22.8606 38.0642 23.0113V23.0236C37.8968 23.1114 37.7076 23.1489 37.5195 23.1317C37.5195 23.1047 37.5195 23.0752 37.5195 23.0433C37.5101 22.8481 37.5481 22.6537 37.6301 22.4764C37.7121 22.2993 37.8359 22.1446 37.9906 22.0258C38.147 21.9012 38.3315 21.8169 38.528 21.78C38.6657 21.753 38.8074 21.753 38.9451 21.78C39.2709 21.8718 39.5551 22.0731 39.75 22.3502C39.8421 22.4797 39.9241 22.6161 39.9953 22.7582L40.5033 23.6257C40.7111 23.9796 40.9205 24.3336 41.1315 24.6874L41.7498 25.7295L42.3854 26.8035L42.9694 27.7866L43.4332 28.5682L43.7056 29.0278L43.708 29.0597Z" fill="#19A3DD"/>
<path d="M35.3158 16.066C36.3132 16.066 37.1218 15.2561 37.1218 14.2571C37.1218 13.2581 36.3132 12.4482 35.3158 12.4482C34.3184 12.4482 33.5098 13.2581 33.5098 14.2571C33.5098 15.2561 34.3184 16.066 35.3158 16.066Z" fill="#19A3DD"/>
<path d="M38.5745 22.3014C38.555 22.4372 38.5069 22.5673 38.4333 22.683C38.3596 22.7986 38.2622 22.8973 38.1475 22.9724C38.1207 22.9902 38.0928 23.0066 38.0642 23.0216C37.8483 23.1356 37.5977 23.1651 37.3614 23.1043C37.125 23.0434 36.9198 22.8965 36.7857 22.6922L33.8165 18.1921C33.7454 18.084 33.6961 17.9629 33.6716 17.8357C33.6472 17.7085 33.6479 17.5777 33.6739 17.4508C33.7263 17.1946 33.8783 16.9697 34.0963 16.8257C34.3143 16.6816 34.5805 16.6302 34.8364 16.6827C34.9631 16.7087 35.0834 16.7595 35.1905 16.832C35.2976 16.9047 35.3894 16.9977 35.4606 17.1058L38.4273 21.6009C38.4651 21.6579 38.4964 21.7189 38.5206 21.7828C38.5868 21.9472 38.6055 22.1269 38.5745 22.3014Z" fill="#19A3DD"/>
<path d="M39.2617 29.753C39.0369 29.9025 38.7636 29.9603 38.4977 29.9146C38.2317 29.869 37.9932 29.7232 37.8311 29.5071L34.7466 25.3119L31.9027 29.4653C31.7458 29.6843 31.5116 29.8352 31.2477 29.8872C30.9837 29.9393 30.7098 29.8886 30.4819 29.7456C30.3703 29.6785 30.2736 29.5893 30.1978 29.4835C30.1219 29.3777 30.0684 29.2574 30.0406 29.1301C30.0128 29.0029 30.0113 28.8712 30.0361 28.7434C30.0609 28.6155 30.1116 28.494 30.185 28.3864L33.8019 23.1147L34.2632 22.4953L34.7221 21.876L35.1834 22.4953L35.6423 23.1147H35.6227C35.6577 23.1486 35.6897 23.1857 35.7183 23.2252L39.5095 28.3864C39.5866 28.4911 39.6416 28.6105 39.671 28.7372C39.7004 28.8639 39.7035 28.9953 39.6803 29.1233C39.6571 29.2513 39.608 29.3732 39.536 29.4815C39.464 29.5898 39.3707 29.6822 39.2617 29.753Z" fill="#19A3DD"/>
</g>
<defs>
<clipPath id="clip0_96_557">
<rect width="243" height="56" fill="white"/>
</clipPath>
</defs>
</svg>
